<svg id="branding" xmlns="http://www.w3.org/2000/svg" width="258" height="273" viewBox="0 0 258 273" preserveAspectRatio="xMidYMid"> <metadata><?xpacket begin="﻿" id="W5M0MpCehiHzreSzNTczkc9d"?> <x:xmpmeta xmlns:x="adobe:ns:meta/" x:xmptk="Adobe XMP Core 5.6-c142 79.160924, 2017/07/13-01:06:39"> <rdf:RDF xmlns:rdf="http://www.w3.org/1999/02/22-rdf-syntax-ns#"> <rdf:Description rdf:about=""/> </rdf:RDF> </x:xmpmeta> <?xpacket end="w"?></metadata> <defs> <linearGradient id="gradient-big-circle" x1="64%" y1="100%" x2="36%" y2="0%" > <stop offset="1%" style="stop-color:rgb(255,224,151);stop-opacity:0.1" /> <stop offset="70%" style="stop-color:rgb(255,224,151);stop-opacity:0.1" /> <stop offset="100%" style="stop-color:rgb(255,224,151);stop-opacity:1" /> </linearGradient> <linearGradient id="gradient-small-circle-1" x1="79%" y1="100%" x2="21%" y2="0%" > <stop offset="0%" style="stop-color:rgb(255,250,191);stop-opacity:1" /> <stop offset="1%" style="stop-color:rgb(255,250,191);stop-opacity:1" /> <stop offset="65%" style="stop-color:rgb(245,151,3);stop-opacity:1" /> <stop offset="100%" style="stop-color:rgb(245,151,3);stop-opacity:1" /> </linearGradient> <linearGradient id="gradient-small-circle-2" x1="50%" y1="100%" x2="50%" y2="0%" > <stop offset="0%" style="stop-color:rgb(255,167,18);stop-opacity:1" /> <stop offset="50%" style="stop-color:rgb(245, 151, 3);stop-opacity:1" /> <stop offset="100%" style="stop-color:rgb(255,208,104);stop-opacity:1" /> </linearGradient> <linearGradient id="gradient-small-circle-3" x1="50%" y1="100%" x2="50%" y2="0%" > <stop offset="1%" style="stop-color:rgb(254,250,230);stop-opacity:0" /> <stop offset="12%" style="stop-color:rgb(254,250,230);stop-opacity:0" /> <stop offset="96%" style="stop-color:rgb(254,250,230);stop-opacity:0.95" /> <stop offset="100%" style="stop-color:rgb(254,250,230);stop-opacity:1" /> </linearGradient> <linearGradient id="gradient-small-circle-4" x1="50%" y1="0%" x2="50%" y2="100%" > <stop offset="1%" style="stop-color:rgb(254,250,230);stop-opacity:0" /> <stop offset="12%" style="stop-color:rgb(254,250,230);stop-opacity:0" /> <stop offset="96%" style="stop-color:rgb(254,250,230);stop-opacity:0.95" /> <stop offset="100%" style="stop-color:rgb(254,250,230);stop-opacity:1" /> </linearGradient> <filter id="shadow"> <feGaussianBlur in="SourceAlpha" stdDeviation="8"/> <feOffset dx="7" dy="7"/> <feComponentTransfer> <feFuncA type="linear" slope="0.3"/> </feComponentTransfer> <feMerge> <feMergeNode/> <feMergeNode in="SourceGraphic"/> </feMerge> </filter> </defs> <g id="big_circle" filter="url(#shadow)"> <path fill="#ff6500" d="M218.451,122.959c-9.395,1.8-28.068,5.844-40.018,8.457-7.606,1.488-13.091,2.564-13.091,2.564s26.622,6.705,52.447,11.258a73.36,73.36,0,0,1-52.509,62.221c-1.784-2.887-9.255-41.215-11.889-54.93-0.619-3.323-.991-5.356-0.991-5.356s-5.237,51.555-7.742,62.278a5.139,5.139,0,0,1-.37,1.036q-2,0-3.973-.1c-34.82-1.837-64.351-27.662-70.287-61.325,5.774-1.755,69.7-14.81,69.7-14.81s-3.523-.568-9-1.489c-16.122-2.93-53.439-9.938-60.475-13.272q0.331-1.694.736-3.354c7.894-31.079,34.92-53.068,68.9-53.068,2.48,5.9,12.126,55.532,12.126,55.532s0.059-.267.168-0.764c0.006,0.033.01,0.051,0.01,0.051s5.454-24.988,9.493-41.28c1.228-4.927,2.313-8.985,3.055-11.2C192.489,72.574,212.685,96.175,218.451,122.959Z"/> <path fill="#ffe9b6" d="M218.451,122.959c-5.766-26.784-25.962-50.385-53.713-57.553-0.742,2.211-1.827,6.27-3.055,11.2,1.3-5.247,2.455-9.593,3.232-11.91,27.976,7.226,48.278,31.153,53.853,58.205ZM152.012,118.6s-9.646-49.635-12.126-55.532c-33.977,0-61,21.989-68.9,53.068,7.659-31.455,34.838-53.781,69.074-53.781,2.435,5.789,11.776,53.731,12.117,55.481C152.071,118.329,152.012,118.6,152.012,118.6Zm-21.285,14.162c5.473,0.921,9,1.489,9,1.489S75.8,147.3,70.028,149.057c-0.036-.206-0.073-0.412-0.107-0.619,3.4-1.306,68.235-14.348,68.235-14.348S135.29,133.587,130.727,132.758ZM152.4,147.173s0.372,2.033.991,5.356c-0.579-3.013-.924-4.839-0.924-4.839s-5.393,52.967-7.809,61.761C147.163,198.728,152.4,147.173,152.4,147.173Zm63.74,7.3a74.665,74.665,0,0,0,1.649-9.236c-25.825-4.553-52.447-11.258-52.447-11.258s5.485-1.076,13.091-2.564c-6.462,1.414-10.958,2.41-10.958,2.41s24.666,6.145,50.491,10.7A74.627,74.627,0,0,1,216.14,154.474Z"/> <path fill="url(#gradient-big-circle)" d="M138.011,66.681c2.336,5.552,13.72,52.285,13.72,52.285s12.09-41.125,15.1-50.081c26.341,6.8,45.049,27.018,50.3,52.489-13.418,2.563-51,12.6-51,12.6s27.016,7.056,51.33,11.344a73.942,73.942,0,0,1-52.584,62.112c-2.048-3.315-12.876-60.4-12.876-60.4s-5.652,57.815-7.7,61.438q-1.881,0-3.741-.1c-32.8-1.731-64.522-27.6-70.138-59.331l68.106-14.815S81.66,121.613,74.584,118.3C82.476,86.731,104.94,68.174,138.011,66.681Z"/> </g> <g id="small_circles" data-name="small circles"> <g id="layer-1" filter="url(#shadow)"> <path fill="url(#gradient-small-circle-1)" d="M110.845,220.215c8.221,0,14.886,5.819,14.886,13s-6.665,13-14.886,13-14.886-5.818-14.886-13S102.623,220.215,110.845,220.215Z"/> <circle fill="url(#gradient-small-circle-1)" cx="155.203" cy="237.328" r="11.047"/> <circle fill="url(#gradient-small-circle-1)" cx="194.641" cy="220.547" r="8.953"/> <path fill="url(#gradient-small-circle-1)" d="M221.762,188.269a7.323,7.323,0,1,1-7.576,7.319A7.451,7.451,0,0,1,221.762,188.269Z"/> <path fill="url(#gradient-small-circle-1)" d="M236.958,163.165a5.839,5.839,0,1,1-6.04,5.836A5.941,5.941,0,0,1,236.958,163.165Z"/> <path fill="url(#gradient-small-circle-1)" d="M58.554,191.934c9.874,0,17.878,7.2,17.878,16.087s-8,16.089-17.878,16.089-17.878-7.2-17.878-16.089S48.68,191.934,58.554,191.934Z"/> <path fill="url(#gradient-small-circle-1)" d="M33.783,133.56c10.925,0,19.782,7.97,19.782,17.8s-8.857,17.8-19.782,17.8S14,161.193,14,151.362,22.858,133.56,33.783,133.56Z"/> <path fill="url(#gradient-small-circle-1)" d="M45.418,69.1c11.6,0,21,8.328,21,18.6s-9.4,18.6-21,18.6-21-8.327-21-18.6S33.819,69.1,45.418,69.1Z"/> <path fill="url(#gradient-small-circle-1)" d="M92.954,16.327c11.034,0,20.57,8.6,21.3,19.207S106.626,54.74,95.591,54.74s-20.57-8.6-21.3-19.207S81.919,16.327,92.954,16.327Z"/> <path fill="url(#gradient-small-circle-1)" d="M157.017,4.019c9.71-.461,18,7.452,18.511,17.674s-6.942,18.882-16.652,19.343-18-7.452-18.511-17.673S147.307,4.481,157.017,4.019Z"/> </g> <g id="layer-2"> <path fill="url(#gradient-small-circle-2)" d="M110.869,220.542c7.369,0,13.342,5.508,13.342,12.3s-5.973,12.3-13.342,12.3-13.341-5.508-13.341-12.3S103.5,220.542,110.869,220.542Z"/> <path fill="url(#gradient-small-circle-2)" d="M58.08,192.015c9.5,0,17.2,7.125,17.2,15.913s-7.7,15.913-17.2,15.913-17.2-7.124-17.2-15.913S48.582,192.015,58.08,192.015Z"/> <path fill="url(#gradient-small-circle-2)" d="M33.791,134.961c10.428,0,18.882,7.4,18.882,16.537s-8.454,16.537-18.882,16.537-18.882-7.4-18.882-16.537S23.362,134.961,33.791,134.961Z"/> <path fill="url(#gradient-small-circle-2)" d="M44.693,70.779c11.113,0,20.122,7.763,20.122,17.338s-9.009,17.338-20.122,17.338S24.571,97.693,24.571,88.118,33.58,70.779,44.693,70.779Z"/> <path fill="url(#gradient-small-circle-2)" d="M101.6,19.813c9.456,4.925,13.489,15.969,9.009,24.669s-15.777,11.76-25.232,6.837S71.893,35.349,76.373,26.65,92.149,14.889,101.6,19.813Z"/> <path fill="url(#gradient-small-circle-2)" d="M155.015,227.317c5.949,0,10.771,4.431,10.771,9.9s-4.822,9.9-10.771,9.9-10.771-4.431-10.771-9.9S149.067,227.317,155.015,227.317Z"/> <path fill="url(#gradient-small-circle-2)" d="M194.39,212.255c4.8-.126,8.777,3.4,8.89,7.88s-3.683,8.211-8.48,8.337-8.777-3.4-8.89-7.881S189.593,212.381,194.39,212.255Z"/> <path fill="url(#gradient-small-circle-2)" d="M221.345,188.681a6.929,6.929,0,0,1,7.566,6.509,7.208,7.208,0,0,1-7.222,7.132,6.92,6.92,0,0,1-7.324-6.525A7.2,7.2,0,0,1,221.345,188.681Z"/> <path fill="url(#gradient-small-circle-2)" d="M236.7,163.4a5.491,5.491,0,1,1-5.669,5.635A5.643,5.643,0,0,1,236.7,163.4Z"/> <path fill="url(#gradient-small-circle-2)" d="M156.49,5.356c9.142-.434,16.944,7.01,17.428,16.626s-6.536,17.763-15.678,18.2-16.944-7.01-17.427-16.626S147.348,5.789,156.49,5.356Z"/> </g> <g id="layer-3"> <g id="top"> <path fill="url(#gradient-small-circle-3)" d="M58.926,193.391c6.7,0.2,12.2,3.785,12.35,8.759,0.222,5.753-6.059,4.684-13.205,4.451-7.127.468-12.553,0.608-12.076-5.092,0.452-4.928,6.235-8.269,12.932-8.118h0Z"/> <path fill="url(#gradient-small-circle-3)" d="M34.193,134.967c7.3,0.215,13.285,4.1,13.451,9.492,0.242,6.234-6.6,5.075-14.383,4.822-7.763.507-13.672,0.66-13.153-5.517,0.493-5.339,6.791-8.96,14.085-8.8h0Z"/> <path fill="url(#gradient-small-circle-3)" d="M93.675,18.184c7.3,0.215,13.285,4.1,13.451,9.491,0.242,6.234-6.6,5.076-14.383,4.823C84.98,33,79.071,33.158,79.59,26.981c0.493-5.34,6.791-8.959,14.085-8.8h0Z"/> <path fill="url(#gradient-small-circle-3)" d="M45.185,70.781c7.3,0.215,13.285,4.1,13.451,9.491,0.242,6.233-6.6,5.076-14.383,4.822-7.763.507-13.672,0.66-13.153-5.517,0.492-5.34,6.791-8.959,14.085-8.8h0Z"/> <path fill="url(#gradient-small-circle-3)" d="M110.329,222.159c5.161-.376,9.634,1.731,10.1,5.228,0.573,4.042-4.327,3.771-9.833,4.156-5.442.879-9.6,1.4-9.632-2.662,0-3.511,4.211-6.313,9.366-6.722h0Z"/> <path fill="url(#gradient-small-circle-3)" d="M154.579,228.618c4.167-.3,7.778,1.392,8.153,4.205,0.462,3.251-3.493,3.033-7.938,3.343-4.393.707-7.75,1.123-7.776-2.142,0-2.823,3.4-5.077,7.561-5.406h0Z"/> <path fill="url(#gradient-small-circle-3)" d="M194.065,213.33c3.354-.336,6.3.976,6.662,3.273,0.44,2.654-2.754,2.559-6.332,2.907-3.528.672-6.226,1.084-6.315-1.59-0.056-2.314,2.636-4.232,5.985-4.59h0Z"/> <path fill="url(#gradient-small-circle-3)" d="M221.074,189.593c2.819-.366,5.328.677,5.637,2.625,0.377,2.253-2.348,2.22-5.362,2.566-2.931.611-5.146,0.988-5.219-1.233-0.046-1.922,2.164-3.578,4.944-3.958h0Z"/> <path fill="url(#gradient-small-circle-3)" d="M236.483,164.127c2.241-.227,4.212.66,4.453,2.213,0.294,1.793-1.841,1.729-4.233,1.964-2.358.454-4.162,0.733-4.221-1.075-0.038-1.563,1.762-2.86,4-3.1h0Z"/> <path fill="url(#gradient-small-circle-3)" d="M157.441,5.877c6.574,0.027,12.05,3.376,12.32,8.206,0.358,5.584-5.825,4.7-12.836,4.65-6.976.631-12.291,0.9-11.963-4.649,0.323-4.8,5.911-8.188,12.479-8.207h0Z"/> </g> <g id="bottom"> <path fill="url(#gradient-small-circle-4)" d="M96.174,52.965c9.371-.814,15.31-7.132,13.142-14.079-2.147-7.06-9.006-5.194-17.255-4.248-8.184.119-13.922,0.4-13.381,7.28,0.581,6.756,8.289,11.765,17.493,11.047h0Z"/> <path fill="url(#gradient-small-circle-4)" d="M46.91,104.581c9.906-.813,16.182-7.132,13.891-14.079-2.269-7.06-9.519-5.194-18.237-4.248-8.65.119-14.715,0.4-14.144,7.28,0.614,6.756,8.761,11.765,18.49,11.047h0Z"/> <path fill="url(#gradient-small-circle-4)" d="M35.36,166.548c8.517-.705,13.914-6.179,11.944-12.2-1.951-6.117-8.185-4.5-15.681-3.681-7.438.1-12.653,0.344-12.161,6.307,0.528,5.853,7.533,10.193,15.9,9.571h0Z"/> <path fill="url(#gradient-small-circle-4)" d="M59.752,222.414c7.954-.642,12.994-5.63,11.154-11.115-1.822-5.574-7.644-4.1-14.645-3.353-6.946.093-11.816,0.313-11.357,5.747,0.493,5.333,7.035,9.288,14.848,8.721h0Z"/> <path fill="url(#gradient-small-circle-4)" d="M112.924,243.927c6.1-.865,9.744-4.655,8.069-8.44-1.665-3.848-6.08-2.5-11.437-1.614-5.346.426-9.087,0.833-8.478,4.653,0.631,3.748,5.855,6.206,11.846,5.4h0Z"/> <path fill="url(#gradient-small-circle-4)" d="M156.674,246.127c4.922-.7,7.867-3.744,6.515-6.789-1.345-3.095-4.909-2.014-9.234-1.3-4.316.343-7.336,0.67-6.844,3.743,0.509,3.014,4.727,4.992,9.563,4.344h0Z"/> <path fill="url(#gradient-small-circle-4)" d="M196.118,227.633c3.954-.675,6.265-3.235,5.112-5.7-1.148-2.508-4-1.547-7.473-.868-3.473.371-5.9,0.7-5.441,3.211,0.473,2.459,3.915,3.991,7.8,3.358h0Z"/> <path fill="url(#gradient-small-circle-4)" d="M222.8,201.614c3.355-.578,5.34-2.77,4.347-4.864-0.984-2.121-3.408-1.267-6.326-.652-2.878.35-4.869,0.653-4.493,2.733,0.387,2.043,3.224,3.317,6.472,2.783h0Z"/> <path fill="url(#gradient-small-circle-4)" d="M237.855,173.794c2.643-.456,4.188-2.186,3.417-3.853-0.767-1.695-2.674-1.045-5-.587-2.322.251-3.945,0.476-3.638,2.171,0.316,1.661,2.618,2.7,5.216,2.269h0Z"/> <path fill="url(#gradient-small-circle-4)" d="M158.132,38.912c7.681-.516,13.632-5.166,13.314-11.063-0.3-6.48-6.969-5.058-14.651-4.519-7.657-.239-13.463-0.183-13.162,6.259,0.32,5.859,6.82,9.779,14.5,9.323h0Z"/> </g> </g> </g> </svg>